<svg width="25" height="24" viewBox="0 0 25 24" fill="none" xmlns="http://www.w3.org/2000/svg">
<g id="carbon:email">
<path id="Vector" d="M21.334 4.5H3.33398C2.93616 4.5 2.55463 4.65804 2.27332 4.93934C1.99202 5.22064 1.83398 5.60218 1.83398 6V18C1.83398 18.3978 1.99202 18.7794 2.27332 19.0607C2.55463 19.342 2.93616 19.5 3.33398 19.5H21.334C21.7318 19.5 22.1133 19.342 22.3946 19.0607C22.6759 18.7794 22.834 18.3978 22.834 18V6C22.834 5.60218 22.6759 5.22064 22.3946 4.93934C22.1133 4.65804 21.7318 4.5 21.334 4.5ZM19.684 6L12.334 11.085L4.98398 6H19.684ZM3.33398 18V6.6825L11.9065 12.615C12.032 12.7021 12.1812 12.7488 12.334 12.7488C12.4868 12.7488 12.6359 12.7021 12.7615 12.615L21.334 6.6825V18H3.33398Z" fill="white"/>
</g>
</svg>
