<svg width="20" height="20" viewBox="0 0 20 20" fill="none" xmlns="http://www.w3.org/2000/svg">
<g id="iwwa:year">
<g id="Group">
<path id="Vector" d="M18.1946 2.4812H15.2416C15.1824 2.4812 15.1257 2.5047 15.0839 2.54652C15.042 2.58834 15.0186 2.64506 15.0186 2.7042C15.0186 2.7422 15.0306 2.7762 15.0471 2.8072V4.5062C15.0471 4.56847 15.0349 4.63013 15.0111 4.68767C14.9873 4.74521 14.9524 4.79749 14.9084 4.84152C14.8643 4.88555 14.8121 4.92046 14.7545 4.94425C14.697 4.96805 14.6353 4.98027 14.5731 4.9802H13.6541C13.5963 4.9802 13.5391 4.96882 13.4857 4.94671C13.4323 4.9246 13.3838 4.89219 13.3429 4.85133C13.3021 4.81047 13.2697 4.76197 13.2475 4.70858C13.2254 4.6552 13.2141 4.59798 13.2141 4.5402V2.8347C13.2435 2.7975 13.26 2.75167 13.2611 2.7042C13.2611 2.6749 13.2554 2.64587 13.2442 2.61879C13.233 2.5917 13.2166 2.56709 13.1959 2.54637C13.1752 2.52565 13.1506 2.50923 13.1235 2.49804C13.0964 2.48686 13.0674 2.48114 13.0381 2.4812H7.08555C7.02641 2.4812 6.96969 2.5047 6.92787 2.54652C6.88605 2.58834 6.86255 2.64506 6.86255 2.7042C6.86255 2.7387 6.87205 2.7702 6.88605 2.7997V4.5182C6.88605 4.57894 6.87409 4.63908 6.85085 4.69519C6.8276 4.75131 6.79354 4.80229 6.75059 4.84524C6.70764 4.88819 6.65666 4.92225 6.60054 4.9455C6.54443 4.96874 6.48429 4.9807 6.42355 4.9807H5.60755C5.4837 4.9807 5.36491 4.9315 5.27733 4.84392C5.18975 4.75634 5.14055 4.63756 5.14055 4.5137V2.8122C5.16041 2.77962 5.17128 2.74235 5.17205 2.7042C5.17212 2.6749 5.1664 2.64587 5.15521 2.61879C5.14403 2.5917 5.12761 2.56709 5.10688 2.54637C5.08616 2.52565 5.06155 2.50923 5.03447 2.49804C5.00738 2.48686 4.97836 2.48114 4.94905 2.4812H1.83755C1.70613 2.48133 1.58013 2.53356 1.48715 2.62645C1.39418 2.71933 1.34182 2.84528 1.34155 2.9767V17.7437C1.34155 18.0177 1.56405 18.2402 1.83755 18.2402H18.1946C18.3261 18.2399 18.4521 18.1875 18.545 18.0944C18.6379 18.0013 18.6901 17.8752 18.6901 17.7437V2.9767C18.6898 2.84537 18.6375 2.71949 18.5446 2.62662C18.4518 2.53376 18.3259 2.48147 18.1946 2.4812ZM18.1946 17.7942H1.83755C1.83094 17.7942 1.8244 17.7929 1.8183 17.7903C1.8122 17.7878 1.80667 17.7841 1.80202 17.7794C1.79737 17.7747 1.7937 17.7691 1.79121 17.763C1.78873 17.7569 1.78749 17.7503 1.78755 17.7437V6.6072H18.2441V17.7432C18.2442 17.7498 18.243 17.7564 18.2406 17.7625C18.2382 17.7687 18.2345 17.7743 18.2299 17.779C18.2253 17.7838 18.2198 17.7876 18.2138 17.7902C18.2077 17.7928 18.2012 17.7941 18.1946 17.7942Z" fill="#007CC7"/>
<path id="Vector_2" d="M6.07359 4.4721C6.19659 4.4721 6.29659 4.3721 6.29659 4.2491V1.2501C6.29659 1.22081 6.29082 1.19182 6.27961 1.16476C6.2684 1.13771 6.25198 1.11312 6.23127 1.09241C6.21056 1.07171 6.18598 1.05528 6.15892 1.04407C6.13187 1.03287 6.10287 1.0271 6.07359 1.0271C6.0443 1.0271 6.0153 1.03287 5.98825 1.04407C5.96119 1.05528 5.93661 1.07171 5.9159 1.09241C5.89519 1.11312 5.87877 1.13771 5.86756 1.16476C5.85635 1.19182 5.85059 1.22081 5.85059 1.2501V4.2496C5.85059 4.3726 5.95059 4.4721 6.07359 4.4721Z" fill="#007CC7"/>
<path id="Vector_3" d="M14.1505 4.4721C14.2735 4.4721 14.3735 4.3721 14.3735 4.2491V1.2501C14.3735 1.19096 14.35 1.13424 14.3082 1.09241C14.2664 1.05059 14.2096 1.0271 14.1505 1.0271C14.0913 1.0271 14.0346 1.05059 13.9928 1.09241C13.951 1.13424 13.9275 1.19096 13.9275 1.2501V4.2496C13.9275 4.3726 14.027 4.4721 14.1505 4.4721Z" fill="#007CC7"/>
<path id="Vector_4" d="M4.92114 9.98071C5.5999 9.98071 6.15014 9.43046 6.15014 8.75171C6.15014 8.07295 5.5999 7.52271 4.92114 7.52271C4.24238 7.52271 3.69214 8.07295 3.69214 8.75171C3.69214 9.43046 4.24238 9.98071 4.92114 9.98071Z" fill="#007CC7"/>
<path id="Vector_5" d="M8.45312 9.98071C9.13188 9.98071 9.68212 9.43046 9.68212 8.75171C9.68212 8.07295 9.13188 7.52271 8.45312 7.52271C7.77436 7.52271 7.22412 8.07295 7.22412 8.75171C7.22412 9.43046 7.77436 9.98071 8.45312 9.98071Z" fill="#007CC7"/>
<path id="Vector_6" d="M11.9846 9.98071C12.6634 9.98071 13.2136 9.43046 13.2136 8.75171C13.2136 8.07295 12.6634 7.52271 11.9846 7.52271C11.3059 7.52271 10.7556 8.07295 10.7556 8.75171C10.7556 9.43046 11.3059 9.98071 11.9846 9.98071Z" fill="#007CC7"/>
<path id="Vector_7" d="M4.92114 13.4031C5.5999 13.4031 6.15014 12.8528 6.15014 12.1741C6.15014 11.4953 5.5999 10.9451 4.92114 10.9451C4.24238 10.9451 3.69214 11.4953 3.69214 12.1741C3.69214 12.8528 4.24238 13.4031 4.92114 13.4031Z" fill="#007CC7"/>
<path id="Vector_8" d="M8.45312 13.4031C9.13188 13.4031 9.68212 12.8528 9.68212 12.1741C9.68212 11.4953 9.13188 10.9451 8.45312 10.9451C7.77436 10.9451 7.22412 11.4953 7.22412 12.1741C7.22412 12.8528 7.77436 13.4031 8.45312 13.4031Z" fill="#007CC7"/>
<path id="Vector_9" d="M11.9846 13.4031C12.6634 13.4031 13.2136 12.8528 13.2136 12.1741C13.2136 11.4953 12.6634 10.9451 11.9846 10.9451C11.3059 10.9451 10.7556 11.4953 10.7556 12.1741C10.7556 12.8528 11.3059 13.4031 11.9846 13.4031Z" fill="#007CC7"/>
<path id="Vector_10" d="M4.92114 16.8257C5.5999 16.8257 6.15014 16.2754 6.15014 15.5967C6.15014 14.9179 5.5999 14.3677 4.92114 14.3677C4.24238 14.3677 3.69214 14.9179 3.69214 15.5967C3.69214 16.2754 4.24238 16.8257 4.92114 16.8257Z" fill="#007CC7"/>
<path id="Vector_11" d="M8.45312 16.8257C9.13188 16.8257 9.68212 16.2754 9.68212 15.5967C9.68212 14.9179 9.13188 14.3677 8.45312 14.3677C7.77436 14.3677 7.22412 14.9179 7.22412 15.5967C7.22412 16.2754 7.77436 16.8257 8.45312 16.8257Z" fill="#007CC7"/>
<path id="Vector_12" d="M11.9846 16.8257C12.6634 16.8257 13.2136 16.2754 13.2136 15.5967C13.2136 14.9179 12.6634 14.3677 11.9846 14.3677C11.3059 14.3677 10.7556 14.9179 10.7556 15.5967C10.7556 16.2754 11.3059 16.8257 11.9846 16.8257Z" fill="#007CC7"/>
<path id="Vector_13" d="M15.4336 9.98071C16.1123 9.98071 16.6626 9.43046 16.6626 8.75171C16.6626 8.07295 16.1123 7.52271 15.4336 7.52271C14.7548 7.52271 14.2046 8.07295 14.2046 8.75171C14.2046 9.43046 14.7548 9.98071 15.4336 9.98071Z" fill="#007CC7"/>
<path id="Vector_14" d="M15.4336 13.4031C16.1123 13.4031 16.6626 12.8528 16.6626 12.1741C16.6626 11.4953 16.1123 10.9451 15.4336 10.9451C14.7548 10.9451 14.2046 11.4953 14.2046 12.1741C14.2046 12.8528 14.7548 13.4031 15.4336 13.4031Z" fill="#007CC7"/>
<path id="Vector_15" d="M15.4336 16.8257C16.1123 16.8257 16.6626 16.2754 16.6626 15.5967C16.6626 14.9179 16.1123 14.3677 15.4336 14.3677C14.7548 14.3677 14.2046 14.9179 14.2046 15.5967C14.2046 16.2754 14.7548 16.8257 15.4336 16.8257Z" fill="#007CC7"/>
</g>
</g>
</svg>
